<svg width="22" height="19" viewBox="0 0 22 19" fill="none" xmlns="http://www.w3.org/2000/svg">
<path d="M1.0098e-06 12.5C-0.000614785 11.3955 0.280422 10.309 0.816552 9.34331C1.35268 8.37761 2.1262 7.56457 3.064 6.98101C3.31151 5.0511 4.2538 3.27751 5.71452 1.99217C7.17524 0.70682 9.05428 -0.00219727 11 -0.00219727C12.9457 -0.00219727 14.8248 0.70682 16.2855 1.99217C17.7462 3.27751 18.6885 5.0511 18.936 6.98101C20.0992 7.7047 21.0041 8.77741 21.5213 10.046C22.0385 11.3146 22.1417 12.7141 21.8161 14.0449C21.4906 15.3756 20.7528 16.5694 19.7083 17.4559C18.6638 18.3423 17.366 18.8761 16 18.981L6 19C2.644 18.726 1.0098e-06 15.922 1.0098e-06 12.5ZM15.848 16.987C16.7938 16.9143 17.6925 16.5445 18.4156 15.9305C19.1387 15.3166 19.6493 14.4898 19.8745 13.5682C20.0996 12.6467 20.0278 11.6776 19.6692 10.7994C19.3107 9.92114 18.6837 9.17866 17.878 8.67801L17.071 8.17501L16.951 7.23301C16.7641 5.7867 16.0569 4.45795 14.9616 3.4951C13.8663 2.53225 12.4578 2.0012 10.9995 2.0012C9.54116 2.0012 8.13272 2.53225 7.03742 3.4951C5.94213 4.45795 5.23493 5.7867 5.048 7.23301L4.928 8.17501L4.123 8.67801C3.3173 9.1786 2.69038 9.921 2.3318 10.7992C1.97321 11.6773 1.90129 12.6463 2.12631 13.5678C2.35133 14.4893 2.86177 15.3161 3.58475 15.9302C4.30773 16.5442 5.20625 16.9141 6.152 16.987L6.325 17H15.675L15.848 16.987ZM12 11V15H10V11H7L11 6.00001L15 11H12Z" fill="#818181"/>
</svg>
