<svg width="82" height="88" viewBox="0 0 82 88" fill="none" xmlns="http://www.w3.org/2000/svg">
<g clip-path="url(#clip0_83_1718)">
<path d="M9.00032 113.783C-24.5979 113.783 -51.833 86.5483 -51.833 52.95C-51.833 19.3518 -24.5979 -7.8833 9.00032 -7.8833C42.5986 -7.8833 69.8337 19.3518 69.8337 52.95C69.8337 86.5483 42.5986 113.783 9.00032 113.783ZM-21.4163 52.95C-21.4163 61.017 -18.2117 68.7536 -12.5075 74.4579C-6.80328 80.1621 0.933321 83.3667 9.00032 83.3667C17.0673 83.3667 24.8039 80.1621 30.5082 74.4579C36.2124 68.7536 39.417 61.017 39.417 52.95H27.2503C27.2503 57.7902 25.3276 62.4322 21.905 65.8547C18.4825 69.2773 13.8405 71.2 9.00032 71.2C4.16012 71.2 -0.481839 69.2773 -3.90438 65.8547C-7.32692 62.4322 -9.24968 57.7902 -9.24968 52.95H-21.4163Z" fill="#3B9E7A"/>
</g>
<defs>
<clipPath id="clip0_83_1718">
<rect width="146" height="146" fill="white" transform="translate(-64 -20.05)"/>
</clipPath>
</defs>
</svg>
