<svg width="162" height="195" viewBox="0 0 162 195" fill="none" xmlns="http://www.w3.org/2000/svg">
<path d="M158.244 26.0174V144.704H54.0498V0.815918H158.2L158.244 26.0174Z" fill="white"/>
<path d="M157.445 26.0175V139.869C157.445 141.396 157.319 142.983 157.445 144.506C157.45 144.571 157.445 144.639 157.445 144.705L158.244 143.905H58.2861C56.9548 143.905 55.5528 143.779 54.2257 143.905C54.1681 143.911 54.1076 143.905 54.0497 143.905L54.8488 144.705V6.65689C54.8488 4.80561 54.968 2.90922 54.8488 1.06068C54.8436 0.979871 54.8488 0.897128 54.8488 0.816028L54.0497 1.61518H153.958C155.291 1.61518 156.695 1.74204 158.024 1.61518C158.082 1.60966 158.142 1.61518 158.2 1.61518L157.401 0.816028L157.416 9.3161L157.439 22.8812L157.445 26.0175C157.447 27.0459 159.045 27.0478 159.043 26.0175L159.028 17.5175L159.005 3.95244L158.999 0.816028C158.993 0.377306 158.639 0.0231797 158.2 0.0168769H58.2918C56.9386 0.0168769 55.579 -0.0210961 54.2261 0.0168769C54.1676 0.0185215 54.1085 0.0168769 54.0499 0.0168769C53.6111 0.0231224 53.257 0.377282 53.2507 0.816028V138.864C53.2507 140.728 53.215 142.596 53.2507 144.46C53.2523 144.542 53.2507 144.623 53.2507 144.705C53.257 145.144 53.6111 145.498 54.0499 145.504H154.008C155.359 145.504 156.717 145.542 158.068 145.504C158.127 145.502 158.186 145.504 158.244 145.504C158.683 145.498 159.037 145.144 159.043 144.705V30.8532C159.043 29.3094 159.081 27.7601 159.043 26.2166C159.042 26.1503 159.043 26.0838 159.043 26.0175C159.043 24.9891 157.445 24.9875 157.445 26.0175Z" fill="#D4D4D4"/>
<path d="M147.589 36.406V155.094H43.3945V11.2046H147.545L147.589 36.406Z" fill="white"/>
<path d="M146.79 36.4064V150.258C146.79 151.784 146.664 153.372 146.79 154.895C146.795 154.96 146.79 155.028 146.79 155.094L147.589 154.294H47.631C46.2997 154.294 44.8977 154.168 43.5706 154.294C43.513 154.3 43.4525 154.294 43.3946 154.294L44.1937 155.094V17.0457C44.1937 15.1945 44.3129 13.2981 44.1937 11.4495C44.1885 11.3687 44.1937 11.286 44.1937 11.2047L43.3946 12.0038H143.303C144.636 12.0038 146.04 12.1307 147.369 12.0038C147.426 11.9983 147.487 12.0038 147.545 12.0038L146.746 11.2047L146.76 19.7048L146.784 33.2698L146.789 36.4062C146.791 37.4345 148.39 37.4364 148.388 36.4062L148.373 27.9061L148.35 14.3411L148.344 11.2047C148.338 10.766 147.984 10.4118 147.545 10.4056H47.6366C46.2833 10.4056 44.9237 10.3676 43.5708 10.4056C43.5122 10.4072 43.4533 10.4056 43.3946 10.4056C42.9559 10.4118 42.6017 10.7659 42.5954 11.2047V149.253C42.5954 151.117 42.5598 152.985 42.5954 154.849C42.597 154.93 42.5954 155.012 42.5954 155.093C42.6017 155.532 42.9558 155.886 43.3946 155.893H143.352C144.704 155.893 146.062 155.93 147.413 155.893C147.471 155.891 147.53 155.893 147.589 155.893C148.028 155.886 148.382 155.532 148.388 155.093V41.242C148.388 39.6982 148.426 38.1489 148.388 36.6054C148.386 36.5392 148.388 36.4727 148.388 36.4064C148.388 35.378 146.79 35.3763 146.79 36.4064Z" fill="#D4D4D4"/>
<ellipse cx="80.988" cy="176.295" rx="80.1955" ry="17.5428" fill="black"/>
<path d="M160.385 176.295C160.35 177.205 160.01 178.077 159.42 178.77C158.613 179.726 157.66 180.55 156.598 181.211C153.279 183.366 149.436 184.701 145.67 185.834C133.542 189.48 120.739 191.015 108.154 192.006C91.9095 193.27 75.5965 193.399 59.3339 192.392C46.0484 191.579 32.608 190.154 19.7003 186.784C15.5057 185.689 11.2704 184.4 7.41263 182.389C6.08361 181.733 4.83911 180.917 3.70641 179.961C2.89231 179.242 2.12389 178.342 1.82292 177.505C1.49185 176.707 1.50095 175.809 1.84811 175.018C2.16362 174.194 2.95345 173.283 3.77885 172.565C6.38718 170.295 9.84024 168.943 13.0587 167.811C18.07 166.115 23.2005 164.794 28.4078 163.86C35.0053 162.597 41.6733 161.716 48.3574 161.064C64.4635 159.537 80.6573 159.145 96.8185 159.893C110.742 160.502 124.78 161.788 138.397 164.864C143.042 165.914 147.71 167.158 152.096 169.037C154.692 170.149 157.816 171.656 159.468 173.885C159.741 174.258 159.971 174.661 160.153 175.085C160.315 175.468 160.394 175.88 160.385 176.295C160.393 177.323 161.992 177.326 161.983 176.295C161.96 173.688 159.901 171.725 157.909 170.338C154.633 168.057 150.72 166.655 146.938 165.474C141.447 163.817 135.851 162.534 130.187 161.634C123.12 160.44 115.99 159.619 108.848 159.041C92.1834 157.707 75.4447 157.572 58.7608 158.636C45.2524 159.486 31.5462 160.95 18.4455 164.485C14.1858 165.635 9.87193 167.006 5.99429 169.149C3.69544 170.419 1.10235 172.174 0.234927 174.795C-0.533122 177.115 0.687753 179.342 2.36522 180.901C4.96873 183.32 8.43864 184.779 11.7266 185.993C16.7095 187.834 21.9115 189.077 27.116 190.103C33.8269 191.426 40.618 192.344 47.4219 193.031C63.9827 194.654 80.6398 195.07 97.261 194.276C111.444 193.636 125.769 192.305 139.622 189.084C144.342 187.986 149.059 186.66 153.491 184.675C156.237 183.446 159.246 181.868 160.988 179.315C161.611 178.429 161.957 177.378 161.983 176.295C161.992 175.266 160.394 175.265 160.385 176.295Z" fill="black"/>
<ellipse cx="80.9884" cy="175.521" rx="63.6847" ry="10.5773" fill="black"/>
<path d="M143.874 175.521C143.873 175.591 143.867 175.66 143.862 175.73C143.883 175.451 143.867 175.697 143.844 175.766C143.821 175.834 143.802 175.903 143.779 175.972C143.74 176.093 143.805 175.913 143.81 175.904C143.789 175.953 143.766 176 143.741 176.047C143.662 176.179 143.586 176.308 143.496 176.432C143.638 176.237 143.465 176.469 143.424 176.512C143.348 176.593 143.274 176.674 143.194 176.752C142.93 177.024 142.63 177.259 142.302 177.451C141.866 177.731 141.414 177.986 140.947 178.212C138.296 179.52 135.237 180.298 132.311 180.966C122.58 183.188 112.522 184.081 102.578 184.676C89.6746 185.439 76.7396 185.518 63.8276 184.911C53.3187 184.424 42.7283 183.591 32.394 181.546C29.0576 180.886 25.6938 180.114 22.5208 178.868C21.5045 178.485 20.5309 177.997 19.6159 177.412C19.2938 177.22 18.9997 176.984 18.7419 176.712C18.6768 176.647 18.6155 176.579 18.5528 176.512C18.5172 176.474 18.3384 176.236 18.4806 176.432C18.3838 176.296 18.2951 176.153 18.2151 176.006C18.1051 175.809 18.2297 176.071 18.1972 175.972C18.175 175.903 18.1555 175.834 18.1326 175.766C18.1076 175.692 18.0945 175.456 18.1149 175.73C18.1087 175.646 18.106 175.564 18.1033 175.48C18.1019 175.437 18.1283 175.224 18.1064 175.378C18.0841 175.536 18.1275 175.296 18.1381 175.257C18.1549 175.194 18.1769 175.133 18.1972 175.071C18.2484 174.916 18.1116 175.246 18.1853 175.098C18.2056 175.057 18.2232 175.015 18.2467 174.976C18.2871 174.908 18.3273 174.84 18.3673 174.772C18.3984 174.72 18.5659 174.506 18.4176 174.691C18.5308 174.551 18.6526 174.417 18.7823 174.291C18.9266 174.152 19.0781 174.02 19.2362 173.896C19.0895 174.012 19.3485 173.815 19.3889 173.786C19.4828 173.72 19.578 173.655 19.6746 173.592C21.8837 172.15 24.5038 171.404 27.0573 170.72C36.1735 168.282 45.7322 167.346 55.1159 166.653C67.9174 165.732 80.759 165.498 93.5856 165.95C104.571 166.316 115.617 167.069 126.461 168.923C130.183 169.507 133.859 170.357 137.46 171.466C138.681 171.843 139.872 172.311 141.023 172.868C141.494 173.1 141.951 173.361 142.39 173.65C142.475 173.707 142.558 173.766 142.642 173.825C142.696 173.863 142.748 173.903 142.801 173.943C142.779 173.926 142.676 173.843 142.79 173.935C142.959 174.071 143.121 174.217 143.274 174.371C143.332 174.429 143.385 174.491 143.441 174.551C143.536 174.653 143.574 174.719 143.511 174.631C143.597 174.755 143.678 174.884 143.751 175.016C143.864 175.216 143.762 175.017 143.779 175.071C143.802 175.14 143.821 175.209 143.844 175.277C143.866 175.342 143.9 175.599 143.862 175.313C143.87 175.382 143.874 175.452 143.874 175.522C143.886 176.549 145.484 176.552 145.472 175.522C145.45 173.663 143.626 172.434 142.16 171.658C139.443 170.221 136.387 169.399 133.413 168.693C123.525 166.346 113.258 165.426 103.136 164.802C89.8937 163.997 76.6177 163.914 63.3667 164.555C52.6236 165.068 41.7799 165.938 31.2281 168.105C27.9235 168.784 24.5898 169.58 21.4705 170.889C19.769 171.603 17.5802 172.579 16.7689 174.374C15.9857 176.106 17.166 177.616 18.5276 178.598C20.6696 180.143 23.394 180.958 25.9047 181.664C29.9446 182.752 34.0488 183.585 38.1932 184.157C43.5928 184.964 49.0281 185.526 54.471 185.94C67.6042 186.912 80.7809 187.158 93.9412 186.679C105.167 186.294 116.457 185.499 127.53 183.55C131.273 182.952 134.963 182.063 138.567 180.891C140.626 180.184 143.09 179.315 144.572 177.622C145.115 177.054 145.435 176.308 145.472 175.522C145.484 174.492 143.886 174.492 143.874 175.521Z" fill="black"/>
<path d="M137.007 175.853L150.275 167.302C150.275 167.302 133.248 162.178 118.727 161.995C112.387 165.757 137.007 175.853 137.007 175.853Z" fill="black" stroke="black" stroke-width="1.4577"/>
<path d="M137.007 47.9387V175.896H24.6748V20.7688H110.436L137.007 47.9387Z" fill="white"/>
<path d="M136.208 47.9389V170.683C136.208 172.326 136.065 174.043 136.208 175.682C136.214 175.752 136.208 175.826 136.208 175.897L137.007 175.097H29.2418C27.8096 175.097 26.2914 174.953 24.8643 175.097C24.8025 175.104 24.737 175.097 24.6746 175.097L25.4738 175.897V27.066C25.4738 25.0719 25.6094 23.0235 25.4738 21.0327C25.4678 20.9456 25.4738 20.8563 25.4738 20.7689L24.6746 21.5681H106.935C108.018 21.5681 109.212 21.7106 110.289 21.5681C110.338 21.5649 110.387 21.5649 110.436 21.5681L109.87 21.334L118.892 30.5589L133.147 45.1345L136.442 48.5042C137.163 49.2407 138.292 48.1102 137.572 47.374L131.175 40.8328L118.954 28.3365C116.355 25.6786 113.815 22.9426 111.147 20.3533C110.749 19.9668 110.38 19.9696 109.871 19.9696H31.7019C29.4592 19.9696 27.2139 19.9381 24.9711 19.9696C24.8725 19.971 24.7734 19.9696 24.6746 19.9696C24.2359 19.9758 23.8817 20.33 23.8755 20.7687V169.6C23.8755 171.609 23.8371 173.623 23.8755 175.633C23.8772 175.721 23.8755 175.809 23.8755 175.897C23.8817 176.335 24.2359 176.689 24.6746 176.696H132.44C133.897 176.696 135.361 176.737 136.817 176.696C136.881 176.694 136.944 176.696 137.007 176.696C137.446 176.689 137.8 176.335 137.806 175.897V53.1523C137.806 51.4879 137.847 49.8176 137.806 48.1535C137.805 48.0821 137.806 48.0104 137.806 47.939C137.806 46.9105 136.208 46.9088 136.208 47.9389Z" fill="#D4D4D4"/>
<path d="M137.007 48.1887H110.472V20.7688L137.007 48.1887Z" fill="black"/>
<path d="M137.007 47.3896H110.472L111.271 48.1887V20.7689L109.907 21.334L112.55 24.065L118.895 30.622L126.538 38.5193L133.173 45.3761C134.244 46.4827 135.279 47.6483 136.397 48.7075C136.413 48.7221 136.427 48.7384 136.442 48.7538C137.159 49.4943 138.288 48.3634 137.572 47.6237L134.929 44.8926L128.584 38.3356L120.941 30.4384L114.306 23.5816C113.235 22.475 112.2 21.3094 111.082 20.2503C111.066 20.2357 111.052 20.2194 111.037 20.204C110.806 19.9838 110.466 19.9207 110.171 20.0429C109.876 20.1652 109.681 20.4498 109.673 20.769V48.1888C109.679 48.6276 110.033 48.9817 110.472 48.988H137.007C138.036 48.9879 138.037 47.3896 137.007 47.3896Z" fill="black"/>
<path d="M55.9807 55.0682H122.431C123.327 55.0682 124.228 55.093 125.124 55.0682C125.162 55.0672 125.201 55.0682 125.239 55.0682C125.454 55.0605 125.625 54.8839 125.625 54.6686C125.625 54.4534 125.454 54.2768 125.239 54.2691H58.7891C57.8926 54.2691 56.9921 54.2443 56.0959 54.2691C56.0576 54.2701 56.0191 54.2691 55.9807 54.2691C55.7656 54.2768 55.5952 54.4534 55.5952 54.6686C55.5952 54.8839 55.7656 55.0605 55.9807 55.0682Z" fill="black"/>
<path d="M33.3388 66.2562H121.509C122.699 66.2562 123.893 66.2787 125.083 66.2562C125.135 66.2552 125.187 66.2562 125.239 66.2562C125.455 66.2485 125.625 66.0718 125.625 65.8566C125.625 65.6413 125.455 65.4647 125.239 65.457H37.0693C35.8786 65.457 34.6855 65.4345 33.4949 65.457C33.4429 65.458 33.3907 65.457 33.3387 65.457C33.1235 65.4647 32.9531 65.6413 32.9531 65.8566C32.9531 66.0718 33.1235 66.2485 33.3387 66.2562H33.3388Z" fill="black"/>
<path d="M33.3388 77.4442H121.509C122.699 77.4442 123.893 77.4667 125.083 77.4442C125.135 77.4432 125.187 77.4442 125.239 77.4442C125.455 77.4365 125.625 77.2598 125.625 77.0446C125.625 76.8293 125.455 76.6527 125.239 76.645H37.0693C35.8786 76.645 34.6855 76.6225 33.4949 76.645C33.4429 76.646 33.3907 76.645 33.3387 76.645C33.1235 76.6527 32.9531 76.8293 32.9531 77.0446C32.9531 77.2598 33.1235 77.4365 33.3387 77.4442H33.3388Z" fill="black"/>
<path d="M33.3388 88.6319H121.509C122.699 88.6319 123.893 88.6544 125.083 88.6319C125.135 88.6309 125.187 88.6319 125.239 88.6319C125.455 88.6242 125.625 88.4476 125.625 88.2323C125.625 88.0171 125.455 87.8404 125.239 87.8327H37.0693C35.8786 87.8327 34.6855 87.8103 33.4949 87.8327C33.4429 87.8337 33.3907 87.8327 33.3387 87.8327C33.1235 87.8404 32.9531 88.0171 32.9531 88.2323C32.9531 88.4476 33.1235 88.6242 33.3387 88.6319H33.3388Z" fill="black"/>
<path d="M33.3388 99.8201H121.509C122.699 99.8201 123.893 99.8426 125.083 99.8201C125.135 99.8192 125.187 99.8201 125.239 99.8201C125.455 99.8124 125.625 99.6358 125.625 99.4206C125.625 99.2053 125.455 99.0287 125.239 99.021H37.0693C35.8786 99.021 34.6855 98.9985 33.4949 99.021C33.4429 99.022 33.3907 99.021 33.3387 99.021C33.1235 99.0287 32.9531 99.2053 32.9531 99.4206C32.9531 99.6358 33.1235 99.8124 33.3387 99.8201H33.3388Z" fill="black"/>
<path d="M33.3388 111.008H121.509C122.699 111.008 123.893 111.03 125.083 111.008C125.135 111.007 125.187 111.008 125.239 111.008C125.455 111 125.625 110.824 125.625 110.608C125.625 110.393 125.455 110.216 125.239 110.209H37.0693C35.8786 110.209 34.6855 110.186 33.4949 110.209C33.4429 110.21 33.3907 110.209 33.3387 110.209C33.1235 110.216 32.9531 110.393 32.9531 110.608C32.9531 110.824 33.1235 111 33.3387 111.008H33.3388Z" fill="black"/>
<path d="M33.3388 122.196H121.509C122.699 122.196 123.893 122.218 125.083 122.196C125.135 122.195 125.187 122.196 125.239 122.196C125.455 122.188 125.625 122.011 125.625 121.796C125.625 121.581 125.455 121.404 125.239 121.396H37.0693C35.8786 121.396 34.6855 121.374 33.4949 121.396C33.4429 121.397 33.3907 121.396 33.3387 121.396C33.1235 121.404 32.9531 121.581 32.9531 121.796C32.9531 122.011 33.1235 122.188 33.3387 122.196H33.3388Z" fill="black"/>
<path d="M33.3388 133.384H121.509C122.699 133.384 123.893 133.406 125.083 133.384C125.135 133.383 125.187 133.384 125.239 133.384C125.455 133.376 125.625 133.199 125.625 132.984C125.625 132.769 125.455 132.592 125.239 132.584H37.0693C35.8786 132.584 34.6855 132.562 33.4949 132.584C33.4429 132.585 33.3907 132.584 33.3387 132.584C33.1235 132.592 32.9531 132.769 32.9531 132.984C32.9531 133.199 33.1235 133.376 33.3387 133.384H33.3388Z" fill="black"/>
<path d="M33.3388 144.572H121.509C122.699 144.572 123.893 144.594 125.083 144.572C125.135 144.571 125.187 144.572 125.239 144.572C125.455 144.564 125.626 144.387 125.626 144.172C125.626 143.957 125.455 143.78 125.239 143.772H37.0693C35.8786 143.772 34.6855 143.75 33.4949 143.772C33.4428 143.773 33.3907 143.772 33.3387 143.772C33.1233 143.78 32.9526 143.957 32.9526 144.172C32.9526 144.387 33.1233 144.564 33.3387 144.572H33.3388Z" fill="black"/>
<path d="M33.3387 155.759H99.0142C99.9021 155.759 100.794 155.783 101.681 155.759C101.72 155.758 101.759 155.759 101.798 155.759C102.013 155.752 102.184 155.575 102.184 155.36C102.184 155.144 102.013 154.968 101.798 154.96H36.1223C35.2345 154.96 34.3429 154.937 33.4552 154.96C33.4164 154.961 33.3775 154.96 33.3387 154.96C33.1233 154.968 32.9526 155.144 32.9526 155.36C32.9526 155.575 33.1233 155.752 33.3387 155.759Z" fill="black"/>
<circle cx="80.7542" cy="103.416" r="37.5594" fill="#389B48"/>
<path d="M115.973 70.3284C112.814 67.3013 107.83 67.3013 104.671 70.3284C96.1799 78.1016 88.605 87.0588 81.8074 96.3203C81.0228 97.3893 80.2535 98.469 79.4993 99.5596C77.3406 97.2095 75.114 94.9244 72.8196 92.7041C69.816 89.7913 64.4685 89.4903 61.518 92.7041C58.6266 95.8539 58.312 100.896 61.518 104.006C63.1321 105.571 64.705 107.18 66.2577 108.806C67.6645 110.279 69.0461 111.776 70.4026 113.296C71.1495 114.138 71.8844 114.99 72.6071 115.853C72.9373 116.249 73.264 116.648 73.5871 117.05C73.7445 117.246 73.8988 117.444 74.0563 117.641C74.1948 117.813 74.1808 117.79 74.0954 117.677C75.7447 119.656 77.7022 120.997 80.4876 120.997C83.3263 120.993 85.951 119.487 87.3878 117.039C89.5807 113.166 91.9824 109.414 94.5824 105.801C95.1735 104.975 95.7732 104.156 96.3814 103.342C96.6814 102.941 96.9834 102.54 97.2874 102.142L97.3025 102.122C97.374 102.03 97.4361 101.95 97.4644 101.914C98.6816 100.363 99.925 98.8326 101.195 97.3233C105.092 92.6841 109.205 88.2174 113.527 83.9707C114.332 83.1801 115.14 82.3915 115.973 81.6296C119.065 78.7997 119.057 73.1599 115.973 70.3284Z" fill="#F5F5F5"/>
</svg>
